<?xml version="1.0" encoding="UTF-8"?>
<svg width="24px" height="24px" viewBox="0 0 24 24" version="1.1" xmlns="http://www.w3.org/2000/svg" xmlns:xlink="http://www.w3.org/1999/xlink">
    <!-- Generator: Sketch 53 (72520) - https://sketchapp.com -->
    <title>分组</title>
    <desc>Created with Sketch.</desc>
    <g id="Page-1" stroke="none" stroke-width="1" fill="none" fill-rule="evenodd">
        <g id="crust-wallet首页" transform="translate(-16.000000, -377.000000)">
            <g id="分组" transform="translate(16.000000, 377.000000)">
                <path d="M24,12 C24,18.6274048 18.6274048,24 12,24 C5.37259516,24 0,18.6274048 0,12 C0,5.37259516 5.37259516,0 12,0 C18.6274048,0 24,5.37259516 24,12" id="Fill-1" fill="#FA8C16"></path>
                <path d="M12.7017052,3.92993772 L12.8805841,10.0109066 C12.8856083,10.1820208 13.092764,10.2642768 13.2138436,10.1432388 L16.176764,7.18027682 C16.2532484,7.10383391 16.2529993,6.97976471 16.1762657,6.90361246 L13.0344664,3.78560554 C12.9092761,3.66137024 12.6965149,3.75363322 12.7017052,3.92993772" id="Fill-3" fill="#FFFFFF"></path>
                <path d="M16.9578021,7.76486782 C16.9078505,7.76486782 16.8578574,7.78392664 16.8197398,7.82204429 L13.8567779,10.7850062 C13.7356983,10.9060858 13.8179958,11.1132415 13.98911,11.1182657 L20.0700374,11.2971446 C20.0721965,11.2971862 20.0742727,11.2972277 20.0763488,11.2972277 C20.2485426,11.2972277 20.3371516,11.0880789 20.2144111,10.9643834 L17.0964042,7.82258408 C17.0582035,7.78409273 17.0080028,7.76486782 16.9578021,7.76486782 M16.9571792,8.27177439 L19.5316152,10.865892 L14.5107571,10.7181965 L16.9571792,8.27177439" id="Fill-5" fill="#FFFFFF"></path>
                <path d="M8.79972872,7.82552803 C8.62757647,7.82552803 8.53892595,8.03467682 8.66170796,8.15837232 L11.7797149,11.3001716 C11.817874,11.3386215 11.8680747,11.3578879 11.9182754,11.3578879 C11.9682685,11.3578879 12.0182201,11.3388291 12.0563792,11.3006699 L15.0192997,8.33774948 C15.1403792,8.2166699 15.0581232,8.00951419 14.8870505,8.00448997 L8.80604014,7.82561107 C8.80392249,7.82556955 8.80180484,7.82552803 8.79972872,7.82552803 M9.34446228,8.25686367 L14.3653204,8.40451765 L11.9188983,10.8509398 L9.34446228,8.25686367" id="Fill-7" fill="#FFFFFF"></path>
                <path d="M16.1732138,15.1939474 L15.9943765,9.11302007 C15.9893107,8.94186436 15.782155,8.8596083 15.661117,8.98068789 L12.6981965,11.9436498 C12.6217121,12.0200927 12.6219612,12.1441619 12.6986533,12.2203142 L15.8404941,15.3383211 C15.9656844,15.4625564 16.1784042,15.3702519 16.1732138,15.1939474" id="Fill-9" fill="#FFFFFF"></path>
                <path d="M7.79619239,8.83547128 L7.97502976,14.9164401 C7.9800955,15.0875543 8.18720969,15.1698104 8.30828927,15.0487308 L11.2712512,12.0858104 C11.3477356,12.0093675 11.3474865,11.8852983 11.2707114,11.809146 L8.12891211,8.6911391 C8.0037218,8.56686228 7.79100208,8.65916678 7.79619239,8.83547128" id="Fill-11" fill="#FFFFFF"></path>
                <path d="M12.0522685,12.6704014 C12.002317,12.6704014 11.9523239,12.6894602 11.9142062,12.7276194 L8.95124429,15.6905398 C8.83016471,15.8115779 8.91242076,16.0187751 9.08357647,16.0238408 L15.1645038,16.2026367 C15.166663,16.2027197 15.1687391,16.2027612 15.1707737,16.2027612 C15.343009,16.2027612 15.431618,15.9936125 15.3088775,15.8699585 L12.1908706,12.7281176 C12.1527114,12.6896678 12.1025107,12.6704014 12.0522685,12.6704014 M12.0516457,13.177308 L14.6261232,15.7714256 L9.60526505,15.6237301 L12.0516457,13.177308" id="Fill-13" fill="#FFFFFF"></path>
                <path d="M3.92363045,12.7016263 C3.7514782,12.7016263 3.66282768,12.9107751 3.78560969,13.0344706 L6.90361661,16.1762699 C6.94177578,16.2147197 6.99197647,16.2339862 7.04217716,16.2339862 C7.09217024,16.2339862 7.1421218,16.2149273 7.18028097,16.1767682 L10.1432429,13.2138478 C10.264281,13.0927682 10.1820249,12.8856125 10.0109107,12.8805882 L3.92994187,12.7017093 C3.92782422,12.7016678 3.92570657,12.7016263 3.92363045,12.7016263 M4.46836401,13.1329619 L9.48922215,13.2806159 L7.0428,15.7270381 L4.46836401,13.1329619" id="Fill-15" fill="#FFFFFF"></path>
                <path d="M11.2971405,20.0700415 L11.1182616,13.9891142 C11.1132374,13.818 10.9060817,13.7357024 10.7850436,13.856782 L7.82208166,16.8197439 C7.74559723,16.8961453 7.74584637,17.0202561 7.82257993,17.0964083 L10.9643792,20.2144152 C11.0895696,20.3386505 11.3023308,20.246346 11.2971405,20.0700415" id="Fill-17" fill="#FFFFFF"></path>
            </g>
        </g>
    </g>
</svg>