<svg width="24" height="13" viewBox="0 0 24 13" fill="none" xmlns="http://www.w3.org/2000/svg">
<path d="M15 2.49219H18C18.2656 2.49219 18.5234 2.52344 18.7734 2.58594C19.0391 2.63281 19.2891 2.70312 19.5234 2.79688C19.7734 2.90625 20.0078 3.03906 20.2266 3.19531C20.4453 3.33594 20.6484 3.49219 20.8359 3.66406C21.0234 3.85156 21.1875 4.05469 21.3281 4.27344C21.4688 4.49219 21.5938 4.72656 21.7031 4.97656C21.7969 5.21094 21.8672 5.46094 21.9141 5.72656C21.9766 5.97656 22.0078 6.23438 22.0078 6.5C22.0078 6.76562 21.9766 7.03125 21.9141 7.29688C21.8672 7.54688 21.7969 7.78906 21.7031 8.02344C21.5938 8.27344 21.4609 8.50781 21.3047 8.72656C21.1641 8.94531 21.0078 9.14844 20.8359 9.33594C20.6484 9.52344 20.4453 9.6875 20.2266 9.82812C20.0078 9.96875 19.7734 10.0938 19.5234 10.2031C19.2891 10.2969 19.0391 10.375 18.7734 10.4375C18.5234 10.4844 18.2656 10.5078 18 10.5078H15C14.7188 10.5078 14.4766 10.6094 14.2734 10.8125C14.0859 11 13.9922 11.2266 13.9922 11.4922C13.9922 11.7734 14.0859 12.0156 14.2734 12.2188C14.4766 12.4062 14.7188 12.5 15 12.5H18C18.4062 12.5 18.7969 12.4609 19.1719 12.3828C19.5625 12.3047 19.9375 12.1953 20.2969 12.0547C20.6562 11.8984 21 11.7109 21.3281 11.4922C21.6562 11.2734 21.9609 11.0234 22.2422 10.7422C22.5234 10.4609 22.7734 10.1562 22.9922 9.82812C23.2109 9.5 23.3984 9.15625 23.5547 8.79688C23.6953 8.4375 23.8047 8.07031 23.8828 7.69531C23.9609 7.30469 24 6.90625 24 6.5C24 6.09375 23.9609 5.70312 23.8828 5.32812C23.8047 4.9375 23.6953 4.5625 23.5547 4.20312C23.3984 3.84375 23.2109 3.5 22.9922 3.17188C22.7734 2.84375 22.5234 2.53906 22.2422 2.25781C21.9609 1.97656 21.6562 1.72656 21.3281 1.50781C21 1.28906 20.6562 1.10156 20.2969 0.945312C19.9375 0.804688 19.5625 0.695313 19.1719 0.617188C18.7969 0.539062 18.4062 0.5 18 0.5H15C14.7188 0.5 14.4766 0.601563 14.2734 0.804688C14.0859 0.992188 13.9922 1.22656 13.9922 1.50781C13.9922 1.77344 14.0859 2.00781 14.2734 2.21094C14.4766 2.39844 14.7188 2.49219 15 2.49219ZM9 10.5078H6C5.73438 10.5078 5.46875 10.4844 5.20312 10.4375C4.95312 10.375 4.71094 10.2969 4.47656 10.2031C4.22656 10.0938 3.99219 9.96875 3.77344 9.82812C3.55469 9.67188 3.35156 9.50781 3.16406 9.33594C2.97656 9.14844 2.8125 8.94531 2.67188 8.72656C2.53125 8.50781 2.40625 8.27344 2.29688 8.02344C2.20312 7.78906 2.125 7.54688 2.0625 7.29688C2.01562 7.03125 1.99219 6.76562 1.99219 6.5C1.99219 6.23438 2.01562 5.97656 2.0625 5.72656C2.125 5.46094 2.20312 5.21094 2.29688 4.97656C2.40625 4.72656 2.53125 4.49219 2.67188 4.27344C2.82812 4.05469 2.99219 3.85156 3.16406 3.66406C3.35156 3.47656 3.55469 3.3125 3.77344 3.17188C3.99219 3.03125 4.22656 2.90625 4.47656 2.79688C4.71094 2.70312 4.95312 2.63281 5.20312 2.58594C5.46875 2.52344 5.73438 2.49219 6 2.49219H9C9.28125 2.49219 9.51562 2.39844 9.70312 2.21094C9.90625 2.00781 10.0078 1.77344 10.0078 1.50781C10.0078 1.22656 9.90625 0.992188 9.70312 0.804688C9.51562 0.601563 9.28125 0.5 9 0.5H6C5.59375 0.5 5.19531 0.539062 4.80469 0.617188C4.42969 0.695313 4.0625 0.804688 3.70312 0.945312C3.34375 1.10156 3 1.28906 2.67188 1.50781C2.34375 1.72656 2.03906 1.97656 1.75781 2.25781C1.47656 2.53906 1.22656 2.84375 1.00781 3.17188C0.789062 3.5 0.601562 3.84375 0.445312 4.20312C0.304688 4.5625 0.195312 4.9375 0.117188 5.32812C0.0390625 5.70312 0 6.09375 0 6.5C0 6.90625 0.0390625 7.30469 0.117188 7.69531C0.195312 8.07031 0.304688 8.4375 0.445312 8.79688C0.601562 9.15625 0.789062 9.5 1.00781 9.82812C1.22656 10.1562 1.47656 10.4609 1.75781 10.7422C2.03906 11.0234 2.34375 11.2734 2.67188 11.4922C3 11.7109 3.34375 11.8984 3.70312 12.0547C4.0625 12.1953 4.42969 12.3047 4.80469 12.3828C5.19531 12.4609 5.59375 12.5 6 12.5H9C9.28125 12.5 9.51562 12.4062 9.70312 12.2188C9.90625 12.0156 10.0078 11.7734 10.0078 11.4922C10.0078 11.2266 9.90625 11 9.70312 10.8125C9.51562 10.6094 9.28125 10.5078 9 10.5078ZM7.99219 7.50781H16.0078C16.2734 7.50781 16.5 7.41406 16.6875 7.22656C16.8906 7.02344 16.9922 6.78125 16.9922 6.5C16.9922 6.21875 16.8906 5.98438 16.6875 5.79688C16.5 5.59375 16.2734 5.49219 16.0078 5.49219H7.99219C7.72656 5.49219 7.49219 5.59375 7.28906 5.79688C7.10156 5.98438 7.00781 6.21875 7.00781 6.5C7.00781 6.78125 7.10156 7.02344 7.28906 7.22656C7.49219 7.41406 7.72656 7.50781 7.99219 7.50781Z" fill="#999999"/>
</svg>
