<?xml version="1.0" encoding="UTF-8"?>
<svg width="98px" height="134px" viewBox="0 0 98 134" version="1.1" xmlns="http://www.w3.org/2000/svg" xmlns:xlink="http://www.w3.org/1999/xlink">
    <!-- Generator: Sketch 53 (72520) - https://sketchapp.com -->
    <title>分组</title>
    <desc>Created with Sketch.</desc>
    <defs>
        <polygon id="path-1" points="0 0.123832117 97.7931744 0.123832117 97.7931744 64.952792 0 64.952792"></polygon>
        <polygon id="path-3" points="0 0.0573150181 97.9147529 0.0573150181 97.9147529 77.060241 0 77.060241"></polygon>
    </defs>
    <g id="Page-1" stroke="none" stroke-width="1" fill="none" fill-rule="evenodd">
        <g id="crust-wallet登录" transform="translate(-131.000000, -58.000000)">
            <g id="分组" transform="translate(131.000000, 58.000000)">
                <g>
                    <mask id="mask-2" fill="white">
                        <use xlink:href="#path-1"></use>
                    </mask>
                    <g id="Clip-2"></g>
                    <path d="M2.93782222,31.4559672 L55.725972,0.912846715 C57.5441797,-0.139251825 59.7842135,-0.139251825 61.602658,0.912846715 L94.8535372,20.1516606 C98.1954792,22.0855292 98.8031266,26.6670803 96.0813778,29.4087044 L84.8094841,40.7621168 C82.9302039,42.6551825 80.0145855,43.0435219 77.7066145,41.7084124 L61.6644406,32.4262226 C59.807885,31.352062 57.5207449,31.352062 55.6641894,32.4262226 L-4.73429952e-05,64.952792 L-4.73429952e-05,36.5553832 C-4.73429952e-05,34.4516606 1.11985121,32.5078285 2.93782222,31.4559672" id="Fill-1" fill="#FF8D00" mask="url(#mask-2)"></path>
                </g>
                <g transform="translate(0.000000, 56.000000)">
                    <mask id="mask-4" fill="white">
                        <use xlink:href="#path-3"></use>
                    </mask>
                    <g id="Clip-4"></g>
                    <path d="M94.9748773,57.2161046 L61.6020899,76.2813704 C59.7841188,77.3199269 57.5445585,77.3199269 55.7265874,76.2813704 L2.93772754,46.1243487 C1.11999324,45.0857921 -0.000142028985,43.1665471 -0.000142028985,41.089434 L-0.000142028985,15.6581491 L27.201486,0.0573150181 L27.201486,25.5497328 C27.201486,27.6266117 28.3216213,29.5460909 30.1395923,30.5844133 L55.7263507,45.201968 C57.5443217,46.2402904 59.7841188,46.2402904 61.6020899,45.201968 L77.7919739,35.9528653 C80.0952106,34.6372198 83.004201,35.0159627 84.884428,36.8766513 L96.1925391,48.0658451 C98.9254135,50.7702146 98.3225005,55.3036521 94.9748773,57.2161046" id="Fill-3" fill="#191919" mask="url(#mask-4)"></path>
                </g>
            </g>
        </g>
    </g>
</svg>