<svg width="30" height="30" viewBox="0 0 30 30" fill="none" xmlns="http://www.w3.org/2000/svg">
<mask id="mask0_11_476" style="mask-type:alpha" maskUnits="userSpaceOnUse" x="0" y="0" width="30" height="30">
<path d="M0 0H30V30H0V0Z" fill="white"/>
</mask>
<g mask="url(#mask0_11_476)">
<path fill-rule="evenodd" clip-rule="evenodd" d="M15 0C6.71573 0 0 6.71573 0 15C0 23.2843 6.71573 30 15 30C23.2843 30 30 23.2843 30 15C30 6.71573 23.2843 0 15 0Z" fill="#FF8D00"/>
</g>
<path fill-rule="evenodd" clip-rule="evenodd" d="M7.77915 9.79054L15.5455 5.31959C15.8131 5.16557 16.1426 5.16557 16.4102 5.31959L21.3022 8.13582C21.7939 8.41887 21.8833 9.08956 21.4828 9.49085L19.8245 11.1528C19.548 11.4299 19.119 11.4868 18.7795 11.2913L16.4193 9.93261C16.1461 9.7753 15.8096 9.7753 15.5365 9.93261L7.34692 14.6939V10.537C7.34692 10.2291 7.51172 9.9445 7.77915 9.79054Z" fill="white"/>
<path fill-rule="evenodd" clip-rule="evenodd" d="M21.3027 22.1042L16.3988 24.9844C16.1317 25.1413 15.8026 25.1413 15.5354 24.9844L7.77861 20.4286C7.51146 20.2718 7.34692 19.9818 7.34692 19.668V15.8262L11.344 13.4694V17.3205C11.344 17.6342 11.5086 17.9242 11.7756 18.0811L15.5354 20.2893C15.8026 20.4462 16.1317 20.4462 16.3988 20.2893L18.7778 18.8921C19.1162 18.6933 19.5436 18.7506 19.82 19.0316L21.4816 20.7219C21.8832 21.1305 21.7946 21.8154 21.3027 22.1042Z" fill="white"/>
</svg>
