<svg width="72" height="100" viewBox="0 0 72 100" fill="none" xmlns="http://www.w3.org/2000/svg">
<path fill-rule="evenodd" clip-rule="evenodd" d="M2.16112 22.9323L40.9931 0.577573C42.3308 -0.192524 43.9785 -0.192524 45.3162 0.577573L69.7762 14.6587C72.2346 16.074 72.6818 19.4274 70.6796 21.4339L62.3878 29.7437C61.0052 31.1291 58.8602 31.4135 57.1628 30.4361L45.3617 23.6427C43.9959 22.8562 42.3134 22.8562 40.9478 23.6427L0 47.449V26.6646C0 25.125 0.823982 23.7021 2.16112 22.9323Z" fill="#FF8D00"/>
<path fill-rule="evenodd" clip-rule="evenodd" d="M69.7788 84.5007L45.2594 98.9015C43.924 99.6859 42.2784 99.6859 40.9426 98.9015L2.15844 76.1228C0.822656 75.3384 0 73.8886 0 72.3195V53.1106L19.9852 41.3265V60.5821C19.9852 62.1508 20.8081 63.6003 22.1436 64.385L40.9426 75.426C42.2784 76.2104 43.9237 76.2104 45.2594 75.426L57.1545 68.4398C58.8465 67.4462 60.9836 67.7325 62.3652 69.1376L70.6732 77.5891C72.6815 79.632 72.2383 83.0565 69.7788 84.5007Z" fill="white"/>
</svg>
