<svg width="30" height="25" viewBox="0 0 30 25" fill="none" xmlns="http://www.w3.org/2000/svg">
<path d="M26.449 24.7959H3.30612C1.48775 24.7959 0 23.3082 0 21.4898V3.30612C0 1.48776 1.48775 0 3.30612 0H26.449C28.2673 0 29.7551 1.48776 29.7551 3.30612V7.43878H23.1429C21.3245 7.43878 19.8367 8.92653 19.8367 10.7449V14.051C19.8367 15.8694 21.3245 17.3571 23.1429 17.3571H29.7551V21.4898C29.7551 23.3082 28.2673 24.7959 26.449 24.7959ZM28.102 15.7041H23.1429C22.2337 15.7041 21.4898 14.9602 21.4898 14.051V10.7449C21.4898 9.83571 22.2337 9.09184 23.1429 9.09184H28.102C29.0112 9.09184 29.7551 9.83571 29.7551 10.7449V14.051C29.7551 14.9602 29.0112 15.7041 28.102 15.7041ZM25.6224 10.7449C24.7133 10.7449 23.9694 11.4888 23.9694 12.398C23.9694 13.3071 24.7133 14.051 25.6224 14.051C26.5316 14.051 27.2755 13.3071 27.2755 12.398C27.2755 11.4888 26.5316 10.7449 25.6224 10.7449Z" fill="#FF8D00"/>
</svg>
